<?xml version="1.0" encoding="UTF-8"?>
<svg width="528px" height="512px" viewBox="0 0 528 512" version="1.1" xmlns="http://www.w3.org/2000/svg" xmlns:xlink="http://www.w3.org/1999/xlink">
    <!-- Generator: Sketch 49.3 (51167) - http://www.bohemiancoding.com/sketch -->
    <title>F3 Austin | Color</title>
    <desc>Created with Sketch.</desc>
    <defs></defs>
    <g id="Page-1" stroke="none" stroke-width="1" fill="none" fill-rule="evenodd">
        <g id="Artboard" transform="translate(-121.000000, -77.000000)">
            <g id="F3-Austin-|-Color" transform="translate(121.261170, 76.827089)">
                <path d="M98.655,358.874 L69.686,364.588 L81.308,382.824 L98.655,358.874 Z M116.339,338.711 L125.005,352.31 L71.062,432.339 L59.24,413.786 L70.954,397.279 L52.48,368.29 L32.705,372.147 L21.15,354.016 L116.339,338.711 Z" id="Fill-1" fill="#1A1919"></path>
                <path d="M166.034,460.117 C163,464.403 159.56,467.889 155.716,470.579 C151.871,473.27 147.736,475.036 143.307,475.883 C138.879,476.73 134.229,476.554 129.363,475.353 C124.494,474.151 119.577,471.794 114.613,468.28 C109.58,464.715 105.689,460.836 102.94,456.645 C100.189,452.452 98.48,448.126 97.808,443.668 C97.135,439.209 97.427,434.721 98.689,430.201 C99.949,425.682 102.095,421.28 105.13,416.994 L136.55,372.617 L152.465,383.886 L121.478,427.651 C119.888,429.896 118.777,432.224 118.142,434.632 C117.508,437.043 117.343,439.403 117.649,441.711 C117.953,444.02 118.73,446.204 119.98,448.262 C121.226,450.321 122.906,452.096 125.015,453.589 C127.123,455.081 129.338,456.063 131.66,456.532 C133.981,457.003 136.283,456.998 138.562,456.519 C140.839,456.039 143.012,455.101 145.076,453.701 C147.136,452.304 148.964,450.482 150.552,448.238 L181.541,404.472 L197.455,415.74 L166.034,460.117" id="Fill-2" fill="#1A1919"></path>
                <path d="M246.143,447.126 C244.967,444.862 243.14,443.003 240.666,441.547 C238.187,440.094 235.762,439.135 233.39,438.677 C231.998,438.407 230.535,438.296 229,438.337 C227.464,438.38 225.972,438.623 224.531,439.065 C223.086,439.508 221.843,440.222 220.806,441.209 C219.765,442.198 219.088,443.509 218.771,445.145 C218.265,447.764 218.859,449.958 220.554,451.728 C222.25,453.499 224.494,455.163 227.292,456.722 C230.088,458.281 233.109,459.884 236.356,461.531 C239.603,463.176 242.544,465.19 245.183,467.566 C247.821,469.944 249.83,472.836 251.209,476.242 C252.588,479.65 252.786,483.889 251.805,488.961 C250.872,493.79 249.156,497.828 246.662,501.08 C244.164,504.333 241.154,506.849 237.627,508.628 C234.099,510.408 230.201,511.479 225.929,511.841 C221.658,512.202 217.271,511.949 212.772,511.079 C207.127,509.989 202.056,508.116 197.561,505.465 C193.065,502.814 189.103,499.163 185.675,494.51 L202.192,482.171 C203.65,485.17 205.732,487.673 208.443,489.681 C211.152,491.691 214.103,493.003 217.294,493.62 C218.847,493.92 220.459,494.041 222.125,493.982 C223.792,493.922 225.33,493.646 226.741,493.156 C228.151,492.664 229.355,491.922 230.355,490.926 C231.353,489.931 232.004,488.656 232.304,487.101 C232.81,484.484 232.207,482.224 230.496,480.322 C228.782,478.421 226.515,476.646 223.695,474.997 C220.873,473.349 217.804,471.652 214.494,469.907 C211.179,468.165 208.183,466.1 205.505,463.714 C202.826,461.33 200.769,458.47 199.334,455.137 C197.898,451.804 197.648,447.725 198.582,442.897 C199.483,438.233 201.194,434.321 203.715,431.157 C206.236,427.996 209.26,425.526 212.787,423.744 C216.314,421.966 220.196,420.87 224.435,420.458 C228.672,420.048 232.92,420.252 237.175,421.075 C242.084,422.025 246.693,423.638 251.007,425.914 C255.32,428.192 259.002,431.323 262.05,435.306 L246.143,447.126" id="Fill-4" fill="#1A1919"></path>
                <polyline id="Fill-6" fill="#1A1919" points="300.385 440.409 275.784 446.094 271.9 429.286 340.104 413.529 343.987 430.336 319.385 436.02 335.424 505.442 316.424 509.831 300.385 440.409"></polyline>
                <polyline id="Fill-7" fill="#1A1919" points="351.118 404.286 367.581 393.836 415.008 468.554 398.546 479.004 351.118 404.286"></polyline>
                <polyline id="Fill-8" fill="#1A1919" points="383.092 387.593 398.541 366.062 470.444 371.344 470.589 371.141 420.621 335.289 431.989 319.446 503.894 371.037 489.029 391.756 415.325 386.412 415.179 386.615 466.366 423.342 454.999 439.186 383.092 387.593"></polyline>
                <path d="M204.808,2.738 C223.109,1.235 241.448,0.374 259.791,0.16 C259.812,5.877 259.832,11.594 259.853,17.312 C247.536,17.435 235.22,17.79 222.914,18.377 C222.935,23.695 222.956,29.013 222.978,34.332 C234.359,33.91 245.746,33.638 257.135,33.518 C257.155,38.585 257.176,43.652 257.196,48.72 C245.809,48.817 234.423,49.02 223.041,49.329 C223.083,61.096 223.124,72.863 223.165,84.632 C217.146,84.655 211.126,84.677 205.106,84.7 C205.007,57.371 204.907,30.051 204.808,2.738" id="Fill-14" fill="#1A1919"></path>
                <path d="M290.268,33.969 C292.137,34.031 294.005,34.096 295.874,34.166 C297.476,34.226 299.039,34.172 300.569,34.006 C302.097,33.84 303.495,33.463 304.762,32.873 C306.029,32.284 307.052,31.421 307.831,30.282 C308.609,29.144 309.012,27.629 309.039,25.734 C309.071,23.309 308.128,21.246 306.205,19.546 C304.283,17.846 301.91,16.917 299.089,16.78 C296.419,16.65 294.197,17.28 292.424,18.66 C290.648,20.042 289.479,21.801 288.917,23.925 C282.641,22.4 276.364,20.92 270.087,19.498 C271.05,15.979 272.465,12.986 274.33,10.531 C276.195,8.077 278.397,6.119 280.935,4.663 C283.475,3.21 286.294,2.184 289.394,1.591 C292.494,0.999 295.76,0.799 299.192,0.994 C302.776,1.197 306.221,1.857 309.524,2.955 C312.828,4.056 315.724,5.635 318.214,7.67 C320.701,9.708 322.67,12.173 324.116,15.057 C325.565,17.943 326.262,21.284 326.21,25.096 C326.148,29.506 324.914,33.198 322.509,36.215 C320.103,39.23 316.644,41.09 312.135,41.797 C312.133,41.911 312.131,42.024 312.13,42.138 C314.565,42.549 316.707,43.366 318.561,44.583 C320.413,45.799 321.973,47.265 323.248,48.972 C324.521,50.681 325.486,52.597 326.143,54.718 C326.801,56.841 327.112,59.058 327.081,61.373 C327.026,65.334 326.195,68.781 324.592,71.736 C322.987,74.692 320.856,77.143 318.197,79.09 C315.54,81.038 312.431,82.483 308.871,83.414 C305.311,84.347 301.547,84.792 297.582,84.736 C290.337,84.635 284.126,82.862 278.948,79.4 C273.77,75.941 270.39,70.543 268.812,63.21 C274.857,61.878 280.902,60.566 286.947,59.282 C287.516,62.21 288.723,64.535 290.57,66.258 C292.415,67.982 295.169,68.879 298.83,68.959 C302.565,69.041 305.344,68.135 307.163,66.246 C308.98,64.356 309.912,61.902 309.953,58.871 C309.985,56.598 309.532,54.821 308.597,53.537 C307.66,52.252 306.435,51.28 304.918,50.618 C303.4,49.958 301.689,49.537 299.786,49.361 C297.88,49.184 295.974,49.068 294.068,49.012 C292.734,48.973 291.399,48.935 290.064,48.899 C290.132,43.922 290.2,38.945 290.268,33.969" id="Fill-15" fill="#1A1919"></path>
                <path d="M450.058,69.9 C422.083,41.925 388.921,21.034 352.75,8.077 L352.75,29.463 C383.548,41.55 411.818,59.944 435.915,84.042 C481.932,130.059 507.274,191.242 507.274,256.32 C507.274,284.396 502.546,311.744 493.487,337.466 L510.24,349.909 C521.422,320.407 527.274,288.815 527.274,256.32 C527.274,185.899 499.852,119.694 450.058,69.9" id="Fill-16" fill="#1A1919"></path>
                <g id="Bat" transform="translate(50.000000, 59.000000)">
                    <path d="M175.976,84.42 L161.247,103.642 L149.532,86.048 C139.302,83.371 130.567,78.323 123.454,70.922 C112.545,59.57 107.848,44.967 105.842,33.751 C94.223,41.552 76.557,55.376 60.436,75.944 C44.81,95.88 33.633,118.222 27.216,142.35 C20.224,168.642 18.875,197.225 23.175,227.489 C39.044,219.952 54.836,218.027 70.269,221.774 C96.914,228.242 114.491,249.997 121.542,260.339 C123.915,260.233 126.253,260.179 128.553,260.179 C156.136,260.179 178.47,267.824 195.071,282.979 C198.275,285.904 201.118,288.982 203.644,292.142 L203.644,75.509 C197.507,73.916 192.18,71.362 188.093,68.952 L175.976,84.42" id="Fill-9" fill="#286AA6"></path>
                    <path d="M213.644,307.967 C213.697,307.86 213.753,307.753 213.806,307.646 L213.482,307.646 C213.535,307.753 213.591,307.86 213.644,307.967" id="Fill-10" fill="#FFFFFE"></path>
                    <path d="M400.072,142.35 C393.655,118.222 382.478,95.88 366.852,75.944 C350.733,55.378 333.068,41.555 321.446,33.752 C319.44,44.967 314.743,59.571 303.835,70.922 C296.72,78.324 287.984,83.372 277.754,86.049 L266.039,103.642 L251.288,84.392 L251.29,84.39 L239.375,69.18 C235.249,71.727 229.872,74.355 223.644,75.834 L223.644,163.945 L404.46,163.945 C403.397,156.592 401.943,149.387 400.072,142.35" id="Fill-11" fill="#FFFFFE"></path>
                    <path d="M223.644,183.945 L223.644,292.143 C226.17,288.983 229.013,285.904 232.218,282.979 C250.204,266.56 274.919,258.957 305.748,260.338 C312.798,249.997 330.376,228.242 357.019,221.774 C372.453,218.026 388.245,219.951 404.113,227.489 C406.237,212.539 406.977,198.001 406.345,183.945 L223.644,183.945" id="Fill-12" fill="#AB2430"></path>
                    <polyline id="Fill-13" fill="#FFFFFE" points="120.103 120.805 132.99 146.917 161.806 151.105 140.955 171.43 145.877 200.13 120.103 186.58 94.328 200.13 99.251 171.43 78.399 151.105 107.216 146.917 120.103 120.805"></polyline>
                    <path d="M321.446,33.752 C333.068,41.555 350.733,55.378 366.852,75.944 C382.478,95.88 393.655,118.222 400.072,142.35 C401.943,149.387 403.397,156.592 404.459,163.945 L223.644,163.945 L223.644,75.834 C229.872,74.355 235.249,71.727 239.375,69.18 L251.29,84.39 L251.288,84.392 L266.039,103.642 L277.754,86.049 C287.984,83.372 296.72,78.324 303.834,70.922 C314.743,59.571 319.44,44.967 321.446,33.752 Z M404.113,227.489 C388.245,219.951 372.453,218.026 357.019,221.774 C330.375,228.242 312.798,249.997 305.748,260.338 C274.919,258.957 250.204,266.56 232.218,282.979 C229.013,285.904 226.17,288.983 223.644,292.143 L223.644,183.945 L406.345,183.945 C406.977,198.001 406.237,212.539 404.113,227.489 Z M203.644,292.142 C201.118,288.982 198.275,285.904 195.071,282.979 C178.47,267.824 156.136,260.179 128.553,260.179 C126.253,260.179 123.915,260.233 121.542,260.339 C114.491,249.997 96.914,228.242 70.269,221.774 C54.835,218.027 39.044,219.952 23.175,227.489 C18.874,197.225 20.224,168.642 27.216,142.35 C33.633,118.222 44.81,95.88 60.436,75.944 C76.557,55.376 94.223,41.552 105.842,33.751 C107.848,44.967 112.544,59.57 123.454,70.922 C130.567,78.323 139.302,83.371 149.532,86.048 L161.247,103.642 L175.976,84.42 L188.093,68.952 C192.18,71.362 197.507,73.916 203.644,75.509 L203.644,292.142 Z M302.75,17.373 L302.75,22.023 C302.203,29.946 299.795,46.262 289.414,57.063 C283.049,63.686 274.691,67.33 263.963,68.137 L242.278,40.454 L234.3,48.121 C234.208,48.209 224.703,56.882 213.93,57.035 C202.317,56.227 192.81,47.951 192.751,47.901 L184.792,40.734 L163.326,68.137 C152.638,67.334 144.305,63.715 137.948,57.139 C123.71,42.414 124.377,17.593 124.385,17.373 L124.5,0.937 L110.018,7.984 C108.602,8.673 74.999,25.289 45.276,62.868 C39.436,70.251 34.163,77.943 29.443,85.905 C20.031,101.78 12.855,118.75 8.045,136.623 C-0.939,170.007 -1.666,206.525 5.884,245.162 L8.466,258.375 C8.466,258.375 30.107,246.249 34.011,244.573 L34.171,244.487 L34.011,244.573 C44.852,239.921 55.381,238.765 65.44,241.182 C91.491,247.439 107.368,275.28 107.513,275.538 L110.639,281.176 L117.064,280.658 C144.896,278.414 166.552,284.118 181.438,297.614 C202.877,317.051 213.806,347.219 213.806,347.219 C213.806,347.219 224.411,317.051 245.851,297.614 C260.738,284.118 282.395,278.413 310.225,280.658 L316.65,281.176 L319.776,275.538 C319.93,275.26 335.545,247.568 361.737,241.208 C375.736,237.81 390.641,241.293 406.041,251.564 L418.526,259.891 L421.404,245.162 C427.743,212.721 428.224,181.783 422.904,152.93 C421.888,147.42 420.684,141.977 419.243,136.623 C412.021,109.785 399.495,84.971 382.012,62.868 C352.29,25.289 318.686,8.673 317.27,7.984 L302.75,0.918 L302.75,17.373 Z" id="Fill-17" fill="#1A1919"></path>
                </g>
                <path d="M91.36,84.042 C115.452,59.95 143.712,41.555 174.5,29.468 L174.5,8.075 C138.338,21.032 105.187,41.931 77.218,69.9 C27.423,119.694 0,185.9 0,256.32 C0,285.714 4.806,314.364 13.997,341.402 L31.862,331.749 C24.063,307.706 20,282.327 20,256.32 C20,191.242 45.343,130.059 91.36,84.042" id="Fill-18" fill="#1A1919"></path>
            </g>
        </g>
    </g>
</svg>