<?xml version="1.0" encoding="UTF-8"?>
<svg width="1158px" height="212px" viewBox="0 0 1158 212" version="1.1" xmlns="http://www.w3.org/2000/svg" xmlns:xlink="http://www.w3.org/1999/xlink">
    <!-- Generator: Sketch 49.3 (51167) - http://www.bohemiancoding.com/sketch -->
    <title>F3 Austin | White (Long)</title>
    <desc>Created with Sketch.</desc>
    <defs></defs>
    <g id="Page-1" stroke="none" stroke-width="1" fill="none" fill-rule="evenodd">
        <g id="Artboard" transform="translate(-1429.000000, -1102.000000)">
            <g id="F3-Austin-|-White-(Long)" transform="translate(1428.033712, 1101.500000)">
                <g id="Bat" transform="translate(236.000000, 0.000000)">
                    <path d="M107.322267,51.4851216 L98.3395096,63.2080191 L91.194897,52.477988 C84.9559395,50.8453693 79.6287358,47.7667517 75.2907392,43.2531129 C68.6376808,36.3298827 65.7731272,27.423969 64.5497304,20.5836809 C57.4636652,25.3412672 46.6897235,33.772093 36.858029,46.3158739 C27.3282196,58.4742177 20.5117164,72.0999058 16.5981885,86.8148195 C12.333986,102.849489 11.511273,120.281368 14.1337088,138.738437 C23.8117163,134.141856 33.4427639,132.967858 42.8548686,135.253037 C59.104822,139.197668 69.8244854,152.465363 74.1246701,158.772626 C75.5718887,158.70798 76.9977619,158.675047 78.4004601,158.675047 C95.2224704,158.675047 108.843279,163.337494 118.967711,172.580055 C120.92173,174.363921 122.655587,176.241097 124.196116,178.168282 L124.196116,46.050581 C120.453351,45.07906 117.20458,43.5214552 114.712047,42.0516715 L107.322267,51.4851216" id="Fill-9" fill="#286AA6"></path>
                    <path d="M130.294804,187.819456 C130.327127,187.7542 130.361279,187.688944 130.393602,187.623688 L130.196005,187.623688 C130.228328,187.688944 130.262481,187.7542 130.294804,187.819456" id="Fill-10" fill="#FFFFFE"></path>
                    <path d="M243.991419,86.8148195 C240.077891,72.0999058 233.261388,58.4742177 223.731578,46.3158739 C213.901104,33.7733128 203.127772,25.3430968 196.039877,20.5842907 C194.81648,27.423969 191.951926,36.3304925 185.299478,43.2531129 C180.960262,47.7673616 175.632448,50.8459791 169.39349,52.4785978 L162.248878,63.2080191 L153.252704,51.4680453 L153.253923,51.4668255 L145.987337,42.1907215 C143.471018,43.7440573 140.191754,45.3467924 136.393491,46.2487883 L136.393491,99.9849356 L246.667523,99.9849356 C246.019232,95.5005705 245.132483,91.106466 243.991419,86.8148195" id="Fill-11" fill="#FFFFFE"></path>
                    <path d="M136.393491,112.182311 L136.393491,178.168892 C137.93402,176.241707 139.667877,174.363921 141.622506,172.580055 C152.591606,162.566619 167.664513,157.929787 186.466157,158.772016 C190.765732,152.465363 201.486005,139.197668 217.734739,135.253037 C227.147453,132.967249 236.778501,134.141246 246.455898,138.738437 C247.75126,129.620899 248.202563,120.754626 247.817126,112.182311 L136.393491,112.182311" id="Fill-12" fill="#AB2430"></path>
                    <polyline id="Fill-13" fill="#FFFFFE" points="73.2470689 73.6751968 81.1064478 89.6000902 98.6804263 92.1542206 85.9640526 104.549803 88.9658266 122.053037 73.2470689 113.789315 57.5277014 122.053037 60.5300853 104.549803 47.8131017 92.1542206 65.3876901 89.6000902 73.2470689 73.6751968"></polyline>
                    <path d="M196.039877,20.5842907 C203.127772,25.3430968 213.901104,33.7733128 223.731578,46.3158739 C233.261388,58.4742177 240.077891,72.0999058 243.991419,86.8148195 C245.132483,91.106466 246.019232,95.5005705 246.666913,99.9849356 L136.393491,99.9849356 L136.393491,46.2487883 C140.191754,45.3467924 143.471018,43.7440573 145.987337,42.1907215 L153.253923,51.4668255 L153.252704,51.4680453 L162.248878,63.2080191 L169.39349,52.4785978 C175.632448,50.8459791 180.960262,47.7673616 185.298868,43.2531129 C191.951926,36.3304925 194.81648,27.423969 196.039877,20.5842907 Z M246.455898,138.738437 C236.778501,134.141246 227.147453,132.967249 217.734739,135.253037 C201.485395,139.197668 190.765732,152.465363 186.466157,158.772016 C167.664513,157.929787 152.591606,162.566619 141.622506,172.580055 C139.667877,174.363921 137.93402,176.241707 136.393491,178.168892 L136.393491,112.182311 L247.817126,112.182311 C248.202563,120.754626 247.75126,129.620899 246.455898,138.738437 Z M124.196116,178.168282 C122.655587,176.241097 120.92173,174.363921 118.967711,172.580055 C108.843279,163.337494 95.2224704,158.675047 78.4004601,158.675047 C76.9977619,158.675047 75.5718887,158.70798 74.1246701,158.772626 C69.8244854,152.465363 59.104822,139.197668 42.8548686,135.253037 C33.442154,132.967858 23.8117163,134.141856 14.1337088,138.738437 C11.5106632,120.281368 12.333986,102.849489 16.5981885,86.8148195 C20.5117164,72.0999058 27.3282196,58.4742177 36.858029,46.3158739 C46.6897235,33.772093 57.4636652,25.3412672 64.5497304,20.5836809 C65.7731272,27.423969 68.6370709,36.3298827 75.2907392,43.2531129 C79.6287358,47.7667517 84.9559395,50.8453693 91.194897,52.477988 L98.3395096,63.2080191 L107.322267,51.4851216 L114.712047,42.0516715 C117.20458,43.5214552 120.453351,45.07906 124.196116,46.050581 L124.196116,178.168282 Z M184.63777,10.5952502 L184.63777,13.4311399 C184.304172,18.2631302 182.835608,28.2137491 176.50456,34.8009417 C172.622746,38.8401025 167.525462,41.0624643 160.98279,41.5546284 L147.757786,24.6716312 L142.892253,29.3474951 C142.836145,29.4011636 137.039342,34.6905554 130.469226,34.7838653 C123.38682,34.2910914 117.588798,29.2438174 117.552815,29.213324 L112.69887,24.8423945 L99.6074268,41.5546284 C93.0891494,41.0649038 88.0071129,38.8577887 84.1301772,34.8472917 C75.4468656,25.866974 75.8536481,10.7294213 75.858527,10.5952502 L75.9286619,0.571447038 L67.0965424,4.86919226 C66.2329682,5.28939185 45.7395479,15.4229713 27.6124185,38.3412299 C24.0507848,42.843891 20.8349468,47.5350016 17.9563662,52.3907767 C12.2162813,62.0724435 7.83986305,72.4219165 4.90639426,83.322101 C-0.572666776,103.68196 -1.01604137,125.953148 3.58846785,149.516648 L5.16314901,157.574844 C5.16314901,157.574844 18.3613191,150.179575 20.7422468,149.157435 L20.8398258,149.104986 L20.7422468,149.157435 C27.3538341,146.320325 33.7751424,145.615317 39.9098123,147.08937 C55.7975037,150.905319 65.4803902,167.884675 65.5688211,168.042021 L67.4752709,171.480461 L71.3936778,171.164549 C88.3675454,169.796004 101.574863,173.274695 110.65337,181.505484 C123.728347,193.359504 130.393602,211.758025 130.393602,211.758025 C130.393602,211.758025 136.861261,193.359504 149.936847,181.505484 C159.015963,173.274695 172.223891,169.795394 189.196539,171.164549 L193.114946,171.480461 L195.021396,168.042021 C195.115316,167.872478 204.638417,150.983992 220.612099,147.105226 C229.149652,145.032892 238.239746,147.157065 247.631725,153.421027 L255.245937,158.499405 L257.001139,149.516648 C260.867098,129.731895 261.160444,110.863775 257.915943,93.2672311 C257.296316,89.9068542 256.562034,86.5873384 255.683213,83.322101 C251.278741,66.954443 243.639524,51.8211593 232.977189,38.3412299 C214.850669,15.4229713 194.356639,5.28939185 193.493065,4.86919226 L184.63777,0.559859531 L184.63777,10.5952502 Z" id="Fill-17" fill="#1A1919"></path>
                </g>
                <g id="Group" transform="translate(551.000000, 47.000000)" fill="#FFFFFE">
                    <path d="M51.216507,0.472 L72.630507,0.472 L123.758507,118 L94.542507,118 L84.416507,93.1 L38.766507,93.1 L28.972507,118 L0.420507026,118 L51.216507,0.472 Z M61.176507,34.668 L46.900507,71.188 L75.618507,71.188 L61.176507,34.668 Z" id="Combined-Shape"></path>
                </g>
                <path d="M778.294507,119.682 C778.294507,126.654035 777.23631,133.072637 775.119884,138.938 C773.003458,144.803363 769.856714,149.893978 765.679557,154.21 C761.502401,158.526022 756.294957,161.901321 750.05707,164.336 C743.819183,166.770679 736.634581,167.988 728.50305,167.988 C720.260127,167.988 713.019831,166.770679 706.781944,164.336 C700.544057,161.901321 695.336613,158.526022 691.159457,154.21 C686.9823,149.893978 683.835556,144.803363 681.71913,138.938 C679.602704,133.072637 678.544507,126.654035 678.544507,119.682 L678.544507,47.472 L704.609834,47.472 L704.609834,118.686 C704.609834,122.338018 705.194627,125.713318 706.364231,128.812 C707.533834,131.910682 709.176825,134.594322 711.293251,136.863 C713.409677,139.131678 715.94378,140.902327 718.895638,142.175 C721.847495,143.447673 725.049934,144.084 728.50305,144.084 C731.956166,144.084 735.130757,143.447673 738.026919,142.175 C740.923081,140.902327 743.429337,139.131678 745.545763,136.863 C747.662189,134.594322 749.30518,131.910682 750.474783,128.812 C751.644387,125.713318 752.22918,122.338018 752.22918,118.686 L752.22918,47.472 L778.294507,47.472 L778.294507,119.682 Z" id="Path" fill="#FFFFFE"></path>
                <path d="M857.650507,76.19 C855.54783,73.5339867 852.698192,71.569673 849.101507,70.297 C845.504822,69.024327 842.101856,68.388 838.892507,68.388 C837.011164,68.388 835.074517,68.6093311 833.082507,69.052 C831.090497,69.4946689 829.209183,70.1863286 827.438507,71.127 C825.667832,72.0676714 824.229179,73.3126589 823.122507,74.862 C822.015835,76.4113411 821.462507,78.2926556 821.462507,80.506 C821.462507,84.047351 822.790494,86.7586573 825.446507,88.64 C828.10252,90.5213427 831.450153,92.1259934 835.489507,93.454 C839.528861,94.7820066 843.872484,96.1099934 848.520507,97.438 C853.16853,98.7660066 857.512153,100.647321 861.551507,103.082 C865.590861,105.516679 868.938494,108.781313 871.594507,112.876 C874.25052,116.970687 875.578507,122.448632 875.578507,129.31 C875.578507,135.839366 874.361186,141.538642 871.926507,146.408 C869.491828,151.277358 866.199528,155.316651 862.049507,158.526 C857.899486,161.735349 853.085534,164.114659 847.607507,165.664 C842.12948,167.213341 836.347204,167.988 830.260507,167.988 C822.624469,167.988 815.541873,166.826012 809.012507,164.502 C802.483141,162.177988 796.396535,158.415359 790.752507,153.214 L809.178507,132.962 C811.83452,136.503351 815.182153,139.242324 819.221507,141.179 C823.260861,143.115676 827.438485,144.084 831.754507,144.084 C833.857184,144.084 835.987496,143.835002 838.145507,143.337 C840.303518,142.838998 842.240165,142.092005 843.955507,141.096 C845.670849,140.099995 847.054168,138.827341 848.105507,137.278 C849.156846,135.728659 849.682507,133.902677 849.682507,131.8 C849.682507,128.258649 848.326854,125.464344 845.615507,123.417 C842.90416,121.369656 839.501194,119.626674 835.406507,118.188 C831.31182,116.749326 826.885197,115.310674 822.126507,113.872 C817.367817,112.433326 812.941194,110.496679 808.846507,108.062 C804.75182,105.627321 801.348854,102.41802 798.637507,98.434 C795.92616,94.4499801 794.570507,89.193366 794.570507,82.664 C794.570507,76.3559685 795.815495,70.8226905 798.305507,66.064 C800.795519,61.3053095 804.115486,57.3213494 808.265507,54.112 C812.415528,50.9026506 817.201813,48.4956747 822.624507,46.891 C828.047201,45.2863253 833.635812,44.484 839.390507,44.484 C846.03054,44.484 852.449143,45.4246573 858.646507,47.306 C864.843871,49.1873427 870.432482,52.3413112 875.412507,56.768 L857.650507,76.19 Z" id="Path" fill="#FFFFFE"></path>
                <polygon id="Path" fill="#FFFFFE" points="920.861471 70.38 887.044507 70.38 887.044507 47.472 980.794507 47.472 980.794507 70.38 946.977543 70.38 946.977543 165 920.861471 165"></polygon>
                <polygon id="Path" fill="#FFFFFE" points="1000.5 47.472 1026.396 47.472 1026.396 165 1000.5 165"></polygon>
                <polygon id="Path" fill="#FFFFFE" points="1046.25451 47.472 1081.6405 47.472 1131.88193 129.144 1132.21576 129.144 1132.21576 47.472 1158.25451 47.472 1158.25451 165 1124.20384 165 1072.62709 81.336 1072.29326 81.336 1072.29326 165 1046.25451 165"></polygon>
                <polygon id="Path" fill="#FFFFFE" points="0.968339463 47.472 79.8183395 47.472 79.8183395 71.376 26.8643395 71.376 26.8643395 95.28 75.8343395 95.28 75.8343395 119.184 26.8643395 119.184 26.8643395 165 0.968339463 165"></polygon>
                <path d="M123.044,93.786 L131.178,93.786 C133.502012,93.786 135.770656,93.6200017 137.984,93.288 C140.197344,92.9559983 142.216991,92.3196714 144.043,91.379 C145.869009,90.4383286 147.335328,89.1103419 148.442,87.395 C149.548672,85.6796581 150.102,83.4386805 150.102,80.672 C150.102,77.130649 148.691014,74.1980116 145.869,71.874 C143.046986,69.5499884 139.588687,68.388 135.494,68.388 C131.620647,68.388 128.411346,69.4393228 125.866,71.542 C123.320654,73.6446772 121.660671,76.2453178 120.886,79.344 L93.496,73.7 C94.8240066,68.6093079 96.8159867,64.2656846 99.472,60.669 C102.128013,57.0723154 105.281982,54.1673444 108.934,51.954 C112.586018,49.7406556 116.652978,48.1083386 121.135,47.057 C125.617022,46.0056614 130.347975,45.48 135.328,45.48 C140.529359,45.48 145.536976,46.116327 150.351,47.389 C155.165024,48.661673 159.397982,50.6536531 163.05,53.365 C166.702018,56.0763469 169.606989,59.4793129 171.765,63.574 C173.923011,67.6686871 175.002,72.5379718 175.002,78.182 C175.002,84.711366 173.286684,90.2999768 169.856,94.948 C166.425316,99.5960232 161.445366,102.583993 154.916,103.912 L154.916,104.41 C158.457351,104.852669 161.583653,105.903992 164.295,107.564 C167.006347,109.224008 169.302657,111.271321 171.184,113.706 C173.065343,116.140679 174.503995,118.907318 175.5,122.006 C176.496005,125.104682 176.994,128.369316 176.994,131.8 C176.994,137.665363 175.859678,142.811311 173.591,147.238 C171.322322,151.664689 168.279019,155.344319 164.461,158.277 C160.642981,161.209681 156.161026,163.395326 151.015,164.834 C145.868974,166.272674 140.418695,166.992 134.664,166.992 C124.150614,166.992 115.103705,164.557358 107.523,159.688 C99.9422954,154.818642 94.9346788,147.127386 92.5,136.614 L118.728,130.472 C119.613338,134.677354 121.411653,137.997321 124.123,140.432 C126.834347,142.866679 130.845973,144.084 136.158,144.084 C141.580694,144.084 145.59232,142.673014 148.193,139.851 C150.79368,137.028986 152.094,133.404689 152.094,128.978 C152.094,125.657983 151.40234,123.085009 150.019,121.259 C148.63566,119.432991 146.837344,118.077338 144.624,117.192 C142.410656,116.306662 139.92068,115.781001 137.154,115.615 C134.387319,115.448999 131.62068,115.366 128.854,115.366 L123.044,115.366 L123.044,93.786 Z" id="Path" fill="#FFFFFE"></path>
            </g>
        </g>
    </g>
</svg>